<svg xmlns="http://www.w3.org/2000/svg" viewBox="0 0 640 360" role="img" aria-labelledby="title desc"><title id="title">Módulo comercial prefabricado</title><desc id="desc">Referencia visual para Módulo comercial prefabricado de CAMHE Infraestructura</desc><rect width="640" height="360" fill="#eef0f2"/><path d="M0 0 H640 V122 C522 94 450 128 332 100 C214 72 146 108 0 74 Z" fill="#ffffff"/><path d="M0 0 H640 V56 H0 Z" fill="#141414"/><rect x="0" y="56" width="640" height="8" fill="#f3c316"/><rect x="0" y="245" width="640" height="75" fill="#1f2328"/><rect x="0" y="258" width="640" height="10" fill="#f3c316" opacity=".9"/><g transform="translate(112 74)"><rect x="0" y="72" width="410" height="164" fill="#d9dde1"/><path d="M-20 74 L205 0 L430 74 Z" fill="#141414"/><rect x="42" y="110" width="112" height="72" fill="#79a7c6"/><rect x="250" y="108" width="82" height="128" fill="#2d3338"/><rect x="268" y="126" width="46" height="34" fill="#79a7c6"/><rect x="0" y="226" width="410" height="16" fill="#f3c316"/></g><text x="32" y="42" font-family="Arial, Helvetica, sans-serif" font-size="24" font-weight="800" fill="#f3c316">CAMHE Infraestructura</text><text x="34" y="328" font-family="Arial, Helvetica, sans-serif" font-size="22" font-weight="800" fill="#111113">Módulo comercial prefabricado</text><text x="34" y="350" font-family="Arial, Helvetica, sans-serif" font-size="14" font-weight="700" fill="#5f6872">Casetas y Módulos</text></svg>