<svg xmlns="http://www.w3.org/2000/svg" viewBox="0 0 640 360" role="img" aria-labelledby="title desc"><title id="title">Gimnasio urbano multifuncional</title><desc id="desc">Referencia visual para Gimnasio urbano multifuncional de CAMHE Infraestructura</desc><rect width="640" height="360" fill="#eef0f2"/><path d="M0 0 H640 V122 C522 94 450 128 332 100 C214 72 146 108 0 74 Z" fill="#ffffff"/><path d="M0 0 H640 V56 H0 Z" fill="#141414"/><rect x="0" y="56" width="640" height="8" fill="#f3c316"/><rect x="0" y="245" width="640" height="75" fill="#1f2328"/><rect x="0" y="258" width="640" height="10" fill="#f3c316" opacity=".9"/><g transform="translate(108 88)" stroke-linecap="round"><circle cx="75" cy="52" r="32" fill="#f3c316"/><circle cx="306" cy="52" r="32" fill="#f3c316"/><path d="M75 84 V210 M306 84 V210 M75 126 H306" stroke="#141414" stroke-width="18"/><path d="M154 126 v82 M228 126 v82" stroke="#6f7780" stroke-width="14"/></g><text x="32" y="42" font-family="Arial, Helvetica, sans-serif" font-size="24" font-weight="800" fill="#f3c316">CAMHE Infraestructura</text><text x="34" y="328" font-family="Arial, Helvetica, sans-serif" font-size="22" font-weight="800" fill="#111113">Gimnasio urbano multifuncional</text><text x="34" y="350" font-family="Arial, Helvetica, sans-serif" font-size="14" font-weight="700" fill="#5f6872">Equipamiento Público</text></svg>