<svg xmlns="http://www.w3.org/2000/svg" viewBox="0 0 640 360" role="img" aria-labelledby="title desc"><title id="title">Aparcabicicletas urbano</title><desc id="desc">Referencia visual para Aparcabicicletas urbano de CAMHE Infraestructura</desc><rect width="640" height="360" fill="#eef0f2"/><path d="M0 0 H640 V122 C522 94 450 128 332 100 C214 72 146 108 0 74 Z" fill="#ffffff"/><path d="M0 0 H640 V56 H0 Z" fill="#141414"/><rect x="0" y="56" width="640" height="8" fill="#f3c316"/><rect x="0" y="245" width="640" height="75" fill="#1f2328"/><rect x="0" y="258" width="640" height="10" fill="#f3c316" opacity=".9"/><g transform="translate(105 116)" fill="none" stroke-linecap="round"><path d="M40 130 A52 52 0 1 0 39 129 M330 130 A52 52 0 1 0 329 129" stroke="#141414" stroke-width="16"/><path d="M91 130 H188 L232 58 H308 M188 130 L142 58 H232" stroke="#6f7780" stroke-width="14"/><path d="M24 190 H424" stroke="#f3c316" stroke-width="16"/></g><text x="32" y="42" font-family="Arial, Helvetica, sans-serif" font-size="24" font-weight="800" fill="#f3c316">CAMHE Infraestructura</text><text x="34" y="328" font-family="Arial, Helvetica, sans-serif" font-size="22" font-weight="800" fill="#111113">Aparcabicicletas urbano</text><text x="34" y="350" font-family="Arial, Helvetica, sans-serif" font-size="14" font-weight="700" fill="#5f6872">Equipamiento Público</text></svg>