<svg xmlns="http://www.w3.org/2000/svg" viewBox="0 0 640 360" role="img" aria-labelledby="title desc"><title id="title">Columpio urbano</title><desc id="desc">Referencia visual para Columpio urbano de CAMHE Infraestructura</desc><rect width="640" height="360" fill="#eef0f2"/><path d="M0 0 H640 V122 C522 94 450 128 332 100 C214 72 146 108 0 74 Z" fill="#ffffff"/><path d="M0 0 H640 V56 H0 Z" fill="#141414"/><rect x="0" y="56" width="640" height="8" fill="#f3c316"/><rect x="0" y="245" width="640" height="75" fill="#1f2328"/><rect x="0" y="258" width="640" height="10" fill="#f3c316" opacity=".9"/><g transform="translate(92 73)"><path d="M18 210 L92 30 L166 210" fill="none" stroke="#141414" stroke-width="18"/><path d="M314 210 L388 30 L462 210" fill="none" stroke="#141414" stroke-width="18"/><line x1="92" y1="30" x2="388" y2="30" stroke="#f3c316" stroke-width="18"/><line x1="235" y1="30" x2="235" y2="128" stroke="#6f7780" stroke-width="8"/><rect x="198" y="128" width="74" height="18" rx="4" fill="#f3c316"/><path d="M32 210 C128 188 190 150 262 72" fill="none" stroke="#2f6f9f" stroke-width="22"/></g><text x="32" y="42" font-family="Arial, Helvetica, sans-serif" font-size="24" font-weight="800" fill="#f3c316">CAMHE Infraestructura</text><text x="34" y="328" font-family="Arial, Helvetica, sans-serif" font-size="22" font-weight="800" fill="#111113">Columpio urbano</text><text x="34" y="350" font-family="Arial, Helvetica, sans-serif" font-size="14" font-weight="700" fill="#5f6872">Equipamiento Público</text></svg>