<svg xmlns="http://www.w3.org/2000/svg" viewBox="0 0 640 360" role="img" aria-labelledby="title desc"><title id="title">Pérgola metálica urbana</title><desc id="desc">Referencia visual para Pérgola metálica urbana de CAMHE Infraestructura</desc><rect width="640" height="360" fill="#eef0f2"/><path d="M0 0 H640 V122 C522 94 450 128 332 100 C214 72 146 108 0 74 Z" fill="#ffffff"/><path d="M0 0 H640 V56 H0 Z" fill="#141414"/><rect x="0" y="56" width="640" height="8" fill="#f3c316"/><rect x="0" y="245" width="640" height="75" fill="#1f2328"/><rect x="0" y="258" width="640" height="10" fill="#f3c316" opacity=".9"/><g transform="translate(86 66)"><rect x="0" y="44" width="470" height="24" fill="#f3c316"/><rect x="32" y="68" width="22" height="178" fill="#141414"/><rect x="416" y="68" width="22" height="178" fill="#141414"/><rect x="78" y="90" width="270" height="104" fill="#9fc3d7" opacity=".9"/><rect x="116" y="204" width="202" height="20" fill="#2d3338"/></g><text x="32" y="42" font-family="Arial, Helvetica, sans-serif" font-size="24" font-weight="800" fill="#f3c316">CAMHE Infraestructura</text><text x="34" y="328" font-family="Arial, Helvetica, sans-serif" font-size="22" font-weight="800" fill="#111113">Pérgola metálica urbana</text><text x="34" y="350" font-family="Arial, Helvetica, sans-serif" font-size="14" font-weight="700" fill="#5f6872">Mobiliario Urbano</text></svg>