<svg xmlns="http://www.w3.org/2000/svg" viewBox="0 0 640 360" role="img" aria-labelledby="title desc"><title id="title">Tope vehicular metálico</title><desc id="desc">Referencia visual para Tope vehicular metálico de CAMHE Infraestructura</desc><rect width="640" height="360" fill="#eef0f2"/><path d="M0 0 H640 V122 C522 94 450 128 332 100 C214 72 146 108 0 74 Z" fill="#ffffff"/><path d="M0 0 H640 V56 H0 Z" fill="#141414"/><rect x="0" y="56" width="640" height="8" fill="#f3c316"/><rect x="0" y="245" width="640" height="75" fill="#1f2328"/><rect x="0" y="258" width="640" height="10" fill="#f3c316" opacity=".9"/><g transform="translate(90 165)"><path d="M0 80 L55 0 H405 L460 80 Z" fill="#141414"/><rect x="75" y="24" width="84" height="24" fill="#f3c316"/><rect x="214" y="24" width="84" height="24" fill="#f3c316"/><rect x="353" y="24" width="60" height="24" fill="#f3c316"/></g><text x="32" y="42" font-family="Arial, Helvetica, sans-serif" font-size="24" font-weight="800" fill="#f3c316">CAMHE Infraestructura</text><text x="34" y="328" font-family="Arial, Helvetica, sans-serif" font-size="22" font-weight="800" fill="#111113">Tope vehicular metálico</text><text x="34" y="350" font-family="Arial, Helvetica, sans-serif" font-size="14" font-weight="700" fill="#5f6872">Seguridad Vial</text></svg>