<svg xmlns="http://www.w3.org/2000/svg" viewBox="0 0 640 360" role="img" aria-labelledby="title desc"><title id="title">Bolardo fijo metálico</title><desc id="desc">Referencia visual para Bolardo fijo metálico de CAMHE Infraestructura</desc><rect width="640" height="360" fill="#eef0f2"/><path d="M0 0 H640 V122 C522 94 450 128 332 100 C214 72 146 108 0 74 Z" fill="#ffffff"/><path d="M0 0 H640 V56 H0 Z" fill="#141414"/><rect x="0" y="56" width="640" height="8" fill="#f3c316"/><rect x="0" y="245" width="640" height="75" fill="#1f2328"/><rect x="0" y="258" width="640" height="10" fill="#f3c316" opacity=".9"/><g transform="translate(140 76)"><rect x="0" y="48" width="54" height="170" rx="16" fill="#2d3338"/><rect x="12" y="16" width="30" height="54" rx="12" fill="#6f7780"/><rect x="7" y="98" width="40" height="13" fill="#f3c316"/><rect x="170" y="48" width="54" height="170" rx="16" fill="#2d3338"/><rect x="182" y="16" width="30" height="54" rx="12" fill="#6f7780"/><rect x="177" y="98" width="40" height="13" fill="#f3c316"/><rect x="340" y="48" width="54" height="170" rx="16" fill="#2d3338"/><rect x="352" y="16" width="30" height="54" rx="12" fill="#6f7780"/><rect x="347" y="98" width="40" height="13" fill="#f3c316"/></g><text x="32" y="42" font-family="Arial, Helvetica, sans-serif" font-size="24" font-weight="800" fill="#f3c316">CAMHE Infraestructura</text><text x="34" y="328" font-family="Arial, Helvetica, sans-serif" font-size="22" font-weight="800" fill="#111113">Bolardo fijo metálico</text><text x="34" y="350" font-family="Arial, Helvetica, sans-serif" font-size="14" font-weight="700" fill="#5f6872">Seguridad Vial</text></svg>